<?xml version="1.0" standalone="no"?>
<!DOCTYPE svg PUBLIC "-//W3C//DTD SVG 20010904//EN" "http://www.w3.org/TR/2001/REC-SVG-20010904/DTD/svg10.dtd">
<svg version="1.0" xmlns="http://www.w3.org/2000/svg" width="260.000000pt" height="260.000000pt" viewBox="0 0 260.000000 260.000000" preserveAspectRatio="xMidYMid meet">
    <metadata>
        Created by potrace 1.11, written by Peter Selinger 2001-2013
    </metadata>
    <g transform="translate(0.000000,260.000000) scale(0.100000,-0.100000)" fill="#000000" stroke="none">
        <path d="M443 2575 c-204 -44 -369 -208 -424 -420 -17 -65 -19 -127 -19 -856
        0 -751 1 -789 20 -861 29 -111 65 -174 150 -258 82 -83 181 -139 278 -159 35
        -7 318 -11 849 -11 875 0 855 -1 981 62 106 54 231 185 257 268 4 14 11 30 16
        36 4 5 15 50 24 98 21 123 22 1529 1 1646 -42 232 -211 408 -438 455 -98 21
        -1600 21 -1695 0z m1276 -305 c181 -15 291 -60 390 -160 65 -64 111 -146 137
        -245 17 -64 19 -112 19 -565 0 -549 -2 -566 -69 -695 -36 -70 -123 -160 -189
        -197 -132 -74 -252 -88 -722 -87 -353 1 -514 11 -590 35 -199 65 -327 216
        -366 434 -20 107 -20 913 0 1020 21 121 63 209 136 288 100 108 210 157 382
        171 144 11 740 12 872 1z"/>
        <path d="M799 2085 c-158 -32 -251 -119 -290 -275 -20 -80 -20 -940 0 -1020
        40 -159 132 -244 298 -276 113 -21 858 -20 974 2 132 25 205 73 256 171 51 95
        58 169 58 613 0 444 -7 518 -58 613 -51 98 -124 146 -256 171 -111 21 -878 22
        -982 1z m1079 -165 c61 -37 71 -118 21 -174 -74 -85 -199 -35 -199 79 0 47 14
        71 53 95 41 25 83 25 125 0z m-442 -139 c220 -71 358 -256 358 -481 0 -228
        -142 -415 -368 -484 -74 -23 -237 -18 -306 10 -227 91 -358 314 -323 551 30
        199 190 371 388 416 56 13 195 6 251 -12z"/>
        <path d="M1232 1620 c-68 -14 -131 -51 -181 -106 -55 -61 -81 -129 -81 -214 0
        -85 26 -153 81 -214 54 -59 113 -92 192 -106 57 -11 73 -10 144 9 106 29 202
        136 223 249 43 225 -157 427 -378 382z"/>
    </g>
</svg>
